<svg width="21" height="17" viewBox="0 0 21 17" fill="none" xmlns="http://www.w3.org/2000/svg">
<g id="Vector">
<g id="Vector_2">
<path d="M15.75 5.54C15.53 2.44 13.38 0 10.75 0C8.12 0 5.97 2.44 5.75 5.54C2.75 6.23 0.75 7.5 0.75 9C0.75 11.21 5.25 13 10.75 13C16.25 13 20.75 11.21 20.75 9C20.75 7.5 18.75 6.23 15.75 5.54ZM13.68 6.84C11.78 7.05 9.72 7.05 7.82 6.84C7.78 6.56 7.75 6.28 7.75 6C7.75 3.8 9.1 2 10.75 2C12.4 2 13.75 3.8 13.75 6C13.75 6.28 13.75 6.56 13.68 6.84Z" fill="#E1E5E0"/>
<path d="M4.01811 13.4555C4.13199 13.2039 4.42824 13.0923 4.67981 13.2062C4.93138 13.3201 5.043 13.6163 4.92912 13.8679L3.69196 16.6009C3.57809 16.8525 3.28184 16.9641 3.03027 16.8502C2.7787 16.7364 2.66708 16.4401 2.78096 16.1885L4.01811 13.4555Z" fill="#E1E5E0"/>
<path d="M16.8672 13.4555C16.7533 13.2039 16.4571 13.0923 16.2055 13.2062C15.9539 13.3201 15.8423 13.6163 15.9562 13.8679L17.1933 16.6009C17.3072 16.8525 17.6035 16.9641 17.855 16.8502C18.1066 16.7364 18.2182 16.4401 18.1044 16.1885L16.8672 13.4555Z" fill="#E1E5E0"/>
</g>
</g>
</svg>
