<svg width="25" height="24" viewBox="0 0 25 24" fill="none" xmlns="http://www.w3.org/2000/svg">
<g id="account-circle-outline">
<path id="Vector" d="M12.75 2C11.4368 2 10.1364 2.25866 8.92317 2.7612C7.70991 3.26375 6.60752 4.00035 5.67893 4.92893C3.80357 6.8043 2.75 9.34784 2.75 12C2.75 14.6522 3.80357 17.1957 5.67893 19.0711C6.60752 19.9997 7.70991 20.7362 8.92317 21.2388C10.1364 21.7413 11.4368 22 12.75 22C15.4022 22 17.9457 20.9464 19.8211 19.0711C21.6964 17.1957 22.75 14.6522 22.75 12C22.75 10.6868 22.4913 9.38642 21.9888 8.17317C21.4862 6.95991 20.7497 5.85752 19.8211 4.92893C18.8925 4.00035 17.7901 3.26375 16.5768 2.7612C15.3636 2.25866 14.0632 2 12.75 2ZM7.82 18.28C8.25 17.38 10.87 16.5 12.75 16.5C14.63 16.5 17.25 17.38 17.68 18.28C16.32 19.36 14.61 20 12.75 20C10.89 20 9.18 19.36 7.82 18.28ZM19.11 16.83C17.68 15.09 14.21 14.5 12.75 14.5C11.29 14.5 7.82 15.09 6.39 16.83C5.37 15.5 4.75 13.82 4.75 12C4.75 7.59 8.34 4 12.75 4C17.16 4 20.75 7.59 20.75 12C20.75 13.82 20.13 15.5 19.11 16.83ZM12.75 6C10.81 6 9.25 7.56 9.25 9.5C9.25 11.44 10.81 13 12.75 13C14.69 13 16.25 11.44 16.25 9.5C16.25 7.56 14.69 6 12.75 6ZM12.75 11C12.3522 11 11.9706 10.842 11.6893 10.5607C11.408 10.2794 11.25 9.89782 11.25 9.5C11.25 9.10218 11.408 8.72064 11.6893 8.43934C11.9706 8.15804 12.3522 8 12.75 8C13.1478 8 13.5294 8.15804 13.8107 8.43934C14.092 8.72064 14.25 9.10218 14.25 9.5C14.25 9.89782 14.092 10.2794 13.8107 10.5607C13.5294 10.842 13.1478 11 12.75 11Z" fill="#EFEFEF"/>
</g>
</svg>
