<svg width="25" height="24" viewBox="0 0 25 24" fill="none" xmlns="http://www.w3.org/2000/svg">
<g id="ticket-confirmation-outline">
<path id="Vector" d="M22.25 10V6C22.25 4.89 21.35 4 20.25 4H4.25C3.15 4 2.25 4.89 2.25 6V10C3.36 10 4.25 10.9 4.25 12C4.25 13.1 3.36 14 2.25 14V18C2.25 19.1 3.15 20 4.25 20H20.25C21.35 20 22.25 19.1 22.25 18V14C21.15 14 20.25 13.1 20.25 12C20.25 10.9 21.15 10 22.25 10ZM20.25 8.54C19.06 9.23 18.25 10.53 18.25 12C18.25 13.47 19.06 14.77 20.25 15.46V18H4.25V15.46C5.44 14.77 6.25 13.47 6.25 12C6.25 10.5 5.45 9.23 4.25 8.54V6H20.25V8.54ZM11.25 15H13.25V17H11.25M11.25 11H13.25V13H11.25M11.25 7H13.25V9H11.25V7Z" fill="#EFEFEF"/>
</g>
</svg>
