<svg width="19" height="21" viewBox="0 0 19 21" fill="none" xmlns="http://www.w3.org/2000/svg">
<path d="M13.3763 4.68298H0.637859L0.00535443 15.5105C-0.0439139 16.3535 0.248125 17.1561 0.82755 17.7704C1.40701 18.3847 2.19122 18.723 3.03568 18.723H10.9268L13.7708 11.4346L13.3763 4.68298Z" fill="#FFDE55"/>
<path d="M13.7708 11.4346L13.3763 4.68298H7.00711V18.723H10.9268L13.7708 11.4346Z" fill="#FFDE55"/>
<path d="M10.5285 7.39463H9.32491V3.52143C9.32491 2.24339 8.28514 1.20362 7.0071 1.20362C5.72906 1.20362 4.68925 2.24339 4.68925 3.52143V7.39459H3.48563V3.52143C3.48559 1.57971 5.06534 0 7.0071 0C8.94886 0 10.5285 1.57971 10.5285 3.52143V7.39463Z" fill="#495959"/>
<path d="M7.0071 0V1.20362C8.28514 1.20362 9.32491 2.24339 9.32491 3.52143L9.32492 7.39459H10.5285L10.5285 3.52143C10.5285 1.57971 8.94886 0 7.0071 0Z" fill="#495959"/>
<path d="M17.5469 19.0918C19.479 17.1597 19.479 14.0272 17.5469 12.0951C15.6148 10.163 12.4823 10.163 10.5501 12.0951C8.61805 14.0272 8.61805 17.1597 10.5501 19.0918C12.4823 21.0239 15.6148 21.0239 17.5469 19.0918Z" fill="#00CC76"/>
<path d="M14.0518 10.6453V20.5417C16.7802 20.5417 19 18.322 19 15.5935C19 12.865 16.7802 10.6453 14.0518 10.6453Z" fill="#00CC76"/>
<path d="M13.397 17.8054L11.4421 15.5945L12.3439 14.7972L13.4358 16.0323L15.6973 13.6897L16.5633 14.5257L13.397 17.8054Z" fill="#FFF5F5"/>
<path d="M15.6973 13.6897L14.0518 15.3943V17.1272L16.5633 14.5257L15.6973 13.6897Z" fill="#FFF5F5"/>
</svg>
