<svg width="17" height="17" viewBox="0 0 17 17" fill="none" xmlns="http://www.w3.org/2000/svg">
<path d="M17 8.5C17 12.7427 13.8915 16.2592 9.82812 16.8967V10.957H11.8087L12.1855 8.5H9.82812V6.90559C9.82812 6.23322 10.1575 5.57812 11.2134 5.57812H12.2852V3.48633C12.2852 3.48633 11.3123 3.32031 10.3823 3.32031C8.4409 3.32031 7.17188 4.49703 7.17188 6.62734V8.5H5.01367V10.957H7.17188V16.8967C3.10848 16.2592 0 12.7427 0 8.5C0 3.80574 3.80574 0 8.5 0C13.1943 0 17 3.80574 17 8.5Z" fill="#1877F2"/>
<path d="M11.8106 10.957L12.1875 8.5H9.83008V6.90555C9.83008 6.23336 10.1594 5.57812 11.2153 5.57812H12.2871V3.48633C12.2871 3.48633 11.3144 3.32031 10.3844 3.32031C8.44282 3.32031 7.17383 4.49703 7.17383 6.62734V8.5H5.01562V10.957H7.17383V16.8967C7.6066 16.9646 8.05013 17 8.50195 17C8.95378 17 9.39731 16.9646 9.83008 16.8967V10.957H11.8106Z" fill="white"/>
</svg>
