<svg width="37" height="35" viewBox="0 0 37 35" fill="none" xmlns="http://www.w3.org/2000/svg">
<path d="M35.2 9.7L20.7 0.6C19.4 -0.2 17.7 -0.2 16.3 0.6L1.8 9.7C0.7 10.4 0 11.6 0 12.8V30.5C0 32.6 1.7 34.2 3.9 34.2H33.2C35.3 34.2 37.1 32.5 37.1 30.5V12.8C37 11.6 36.3 10.4 35.2 9.7ZM13.7 24.6L4.7 31.6C4.5 31.8 4.2 31.9 3.9 31.9C3.5 31.9 3.2 31.7 2.9 31.4C2.5 30.9 2.6 30.1 3.1 29.6L12.1 22.6C12.6 22.2 13.4 22.3 13.9 22.8C14.4 23.4 14.3 24.2 13.7 24.6ZM17.3 21.7L5.9 13.6C4.6 12.7 5.3 10.8 6.8 10.8H30.1C31.7 10.8 32.3 12.7 31 13.6L19.6 21.7C19 22.2 18 22.2 17.3 21.7ZM34 31.4C33.8 31.7 33.4 31.9 33 31.9C32.7 31.9 32.5 31.8 32.2 31.6L23.2 24.6C22.7 24.2 22.6 23.4 23 22.8C23.4 22.3 24.2 22.2 24.8 22.6L33.8 29.6C34.3 30.1 34.4 30.9 34 31.4Z" fill="#173042"/>
</svg>
