<svg width="31" height="31" viewBox="0 0 31 31" fill="none" xmlns="http://www.w3.org/2000/svg">
<g clip-path="url(#clip0_612_2180)">
<path d="M29.2991 22.1001L25.2991 20.0001C24.2991 19.5001 23.5991 19.9001 22.7991 21.0001C20.9991 23.5001 20.0991 24.0001 17.8991 22.7001C15.7991 21.5001 14.2991 20.2001 12.4991 18.3001C10.5991 16.4001 9.29911 15 8.09911 12.9001C6.89911 10.7001 7.39911 9.80005 9.79911 8.00005C10.8991 7.20005 11.2991 6.40005 10.7991 5.50005L8.69911 1.60005C7.89911 -0.0999492 6.59911 -0.299949 4.79911 0.300051C2.29911 1.20005 -0.100887 4.80005 -0.000886768 6.50005C0.399113 11.5001 2.89911 17.5 8.09911 22.8001C13.2991 28 19.3991 30.5001 24.3991 30.9001C26.0991 31.0001 29.6991 28.6001 30.5991 26.1001C31.0991 24.2001 30.8991 23.0001 29.2991 22.1001Z" fill="#173042"/>
</g>
<defs>
<clipPath id="clip0_612_2180">
<rect width="30.8" height="30.9" fill="white"/>
</clipPath>
</defs>
</svg>
