<svg width="48" height="100" viewBox="0 0 48 100" fill="none" xmlns="http://www.w3.org/2000/svg">
<path d="M47.6968 7.07813C47.3844 6.9253 47.052 6.86267 46.7071 6.89273C46.5047 6.91027 46.2947 6.95787 46.0873 7.03805C46.0373 7.05809 46.0073 7.0631 45.9923 7.0631H45.9898C45.9823 7.05308 45.9623 7.02803 45.9323 6.96539C45.5799 6.22128 45.3675 5.43458 45.3 4.62283C45.3 4.61531 45.3 4.59778 45.3 4.58525C45.3 4.50758 45.3 4.3748 45.2 4.27959C45.1575 4.2395 45.08 4.19441 44.9626 4.20443C44.9276 4.20693 44.8901 4.21445 44.8501 4.22698C44.6751 4.28209 44.4952 4.31467 44.3002 4.3322C43.8129 4.37229 43.3305 4.29212 42.8181 4.20693L42.6982 4.18689C42.6482 4.17937 42.6057 4.17687 42.5632 4.17937C42.5407 4.18188 42.5182 4.18438 42.4982 4.18939C42.4657 4.08667 42.3758 3.96391 42.1358 3.89125C41.8734 3.81108 41.6085 3.78101 41.3485 3.80106C41.1286 3.81859 40.9112 3.87622 40.7012 3.96641C40.6862 3.97142 40.6762 3.97643 40.6662 3.98145C40.6637 3.97643 40.6587 3.96892 40.6537 3.96391C40.4613 3.65073 40.1439 3.44779 39.7915 3.39518L39.8214 3.38015L39.4465 3.18473C39.4016 3.16218 39.3566 3.13963 39.3116 3.11708C39.2166 3.07198 39.1266 3.02688 39.0467 2.97678C39.1691 2.85401 39.2141 2.65107 39.1516 2.48321C39.0916 2.32286 38.9492 2.22515 38.7767 2.23267C38.7692 2.23267 38.7617 2.23267 38.7542 2.23267C38.6418 2.24269 38.5518 2.2928 38.4943 2.33038C38.4768 2.34291 38.4593 2.35293 38.4418 2.36546C38.4093 2.388 38.3568 2.42308 38.3368 2.42809C38.3368 2.42809 38.3343 2.42809 38.3318 2.42559C38.2144 2.36044 38.1269 2.17003 38.0544 2.0147C38.0394 1.98463 38.0269 1.95707 38.0144 1.92951C38.0094 1.922 38.0069 1.91198 38.0044 1.90446C37.9794 1.84433 37.902 1.66394 37.6895 1.68148C37.6795 1.68148 37.667 1.68398 37.657 1.68649C37.6545 1.68649 37.652 1.68649 37.652 1.68649C37.6445 1.66143 37.637 1.62886 37.632 1.60632C37.6245 1.57375 37.617 1.54368 37.607 1.51612C37.4196 0.979963 37.0797 0.544021 36.6573 0.285964C36.3924 0.125617 36.0799 0.0304118 35.7575 0.00535767C35.6501 -0.00215857 35.5351 -0.00215857 35.4201 0.00786308C35.2227 0.025401 35.0102 0.0654875 34.7678 0.135639C34.5803 0.188253 34.3954 0.258404 34.2179 0.338577C33.893 0.488902 33.6306 0.649248 33.4182 0.832143C33.0908 1.09271 32.8508 1.4585 32.6409 1.7842L32.6209 1.81426C32.3959 2.16001 32.191 2.52079 31.991 2.86904C31.8636 3.09202 31.7336 3.32252 31.5986 3.5455C31.4387 3.80857 31.4612 4.05911 31.6536 4.21445C31.6586 4.21695 31.6611 4.22197 31.6661 4.22447C31.6536 4.24702 31.6336 4.27458 31.6236 4.28711C31.4687 4.50257 31.2462 4.6529 31.0338 4.78318C30.5464 5.07882 30.0216 5.28677 29.3842 5.50474C29.1918 5.57238 28.9943 5.63752 28.8019 5.70016C28.7144 5.73022 28.6244 5.75778 28.537 5.78785L28.307 5.86551C28.1821 5.81541 28.0396 5.77282 27.8896 5.78534C27.8572 5.78785 27.8222 5.79286 27.7897 5.80037C26.8699 5.94068 26.5075 6.07597 25.7277 6.76496C25.3128 7.13075 24.873 7.37628 24.3856 7.51408C23.9532 7.63684 23.4733 7.80971 23.2234 8.32583C23.2134 8.33084 23.2009 8.33585 23.1934 8.33836L23.1884 8.34086C22.776 8.51123 22.4436 8.76678 22.2037 9.1C21.9762 9.41318 21.8288 9.79651 21.7638 10.2425C21.7063 10.6333 21.6638 10.9415 21.3914 11.172C21.2889 11.2597 21.2464 11.3824 21.2139 11.4826C21.2089 11.4977 21.2039 11.5102 21.1989 11.5227C21.1739 11.5954 21.1664 11.6555 21.1689 11.7081C21.1564 11.7081 21.1465 11.7081 21.134 11.7081C20.914 11.7257 20.8265 11.9311 20.774 12.0514L20.7641 12.0739C20.7341 12.1416 20.7116 12.2067 20.6891 12.2693C20.6666 12.332 20.6466 12.3896 20.6241 12.4422C20.5266 12.6627 20.4491 12.8907 20.3717 13.1112C20.2292 13.5296 20.0942 13.9229 19.8418 14.2637C19.7818 14.3463 19.7543 14.4315 19.7618 14.5117C19.4794 14.5543 19.3719 14.8524 19.2919 15.0729C19.2145 15.2884 19.187 15.4963 19.2145 15.6917C19.2195 15.7368 19.227 15.7844 19.232 15.8295C19.257 16.03 19.282 16.2379 19.3444 16.4409C19.5044 16.9695 19.4019 17.3804 19.012 17.7737L18.987 17.7988L18.972 17.8314C18.9445 17.8865 18.937 17.9366 18.937 17.9792C18.907 17.9892 18.8796 17.9992 18.8521 18.0143C18.6546 18.107 18.4997 18.2798 18.4147 18.5003C18.0123 19.5401 17.3425 20.1213 16.3677 20.2766C16.0128 20.3318 15.9154 20.5773 15.8679 20.7852C15.7379 21.359 15.4705 21.7072 15.0231 21.8826C14.7582 21.9853 14.6357 22.2409 14.5707 22.3787C14.4158 22.7044 14.3233 23.005 14.2933 23.2982C14.1883 24.2928 13.8234 25.2674 13.1761 26.2771C13.0161 26.5251 12.9486 26.7481 12.9387 26.9486C12.8762 26.921 12.8187 26.9135 12.7712 26.9185C12.6362 26.9285 12.5163 27.0212 12.4138 27.1916C12.0189 27.8455 11.8314 28.4117 11.8239 28.9729C11.819 29.3036 11.719 29.484 11.464 29.6168C11.0766 29.8223 10.8917 30.1379 10.9167 30.5589C10.9292 30.7944 10.8417 30.9547 10.6343 31.0775C10.3593 31.2378 10.1394 31.4959 9.98444 31.8466C9.88197 32.0771 9.7745 32.3176 9.64203 32.5306C9.45708 32.8288 9.41459 33.152 9.50707 33.5478C9.56456 33.7958 9.68202 34.0013 9.80199 34.1967C9.70702 34.2218 9.62954 34.2844 9.57455 34.3345C9.32212 34.5625 9.17966 34.8506 9.13967 35.2189C9.12467 35.3642 9.09718 35.3843 8.98721 35.3993C8.69479 35.4394 8.44485 35.5421 8.24991 35.7C8.02997 35.8753 7.91 36.1058 7.9075 36.3489C7.9075 36.5844 8.02247 36.8099 8.23241 36.9802C8.31239 37.0454 8.31489 37.0905 8.2899 37.1556C8.23491 37.3034 8.15993 37.4563 8.09495 37.5915C7.79253 38.2179 7.40014 38.7841 6.89277 39.3203C6.71032 39.5157 6.36791 39.8765 6.45039 40.4051C6.45289 40.4126 6.45039 40.4176 6.45039 40.4176C6.45039 40.4202 6.42789 40.4527 6.31043 40.4903C6.08799 40.563 5.87054 40.6607 5.78307 40.8636C5.69559 41.0691 5.77807 41.2945 5.88054 41.505C5.93803 41.6227 5.94802 41.723 5.91803 41.8332C5.70309 42.5923 5.40567 43.4667 4.82582 44.2058C4.60088 44.4939 4.52341 44.8197 4.60838 45.1278C4.63588 45.223 4.67586 45.3132 4.73335 45.3959C4.69836 45.4109 4.66587 45.431 4.63588 45.4585C4.48092 45.5988 4.27847 45.6364 4.04353 45.6815C3.99855 45.6915 3.95106 45.6991 3.90607 45.7091C3.49618 45.7943 3.24875 46.0373 3.17127 46.4306C3.10629 46.7563 3.02881 47.0896 2.95383 47.4102C2.92133 47.543 2.89134 47.6783 2.86135 47.8136C2.83636 47.9214 2.80637 48.0216 2.75888 48.0391C2.27651 48.2045 2.24402 48.6028 2.3015 48.911C2.40647 49.4697 2.3015 49.9908 1.97909 50.5019C1.78664 50.8076 1.74915 51.0857 1.69666 51.474C1.68167 51.5843 1.66417 51.7095 1.64168 51.8473C1.52921 52.5288 1.31427 53.8567 1.78914 54.5281C1.58669 54.5707 1.45423 54.7261 1.35925 54.8588C1.15931 55.1394 1.22179 55.4601 1.52171 55.6931C1.67417 55.8134 1.86162 55.8836 2.06656 55.8961C2.07156 55.8961 2.07656 55.8961 2.08156 55.8961C2.08156 55.9036 2.08156 55.9111 2.07906 55.9236C2.05407 56.2493 2.09906 56.5625 2.14154 56.8657C2.15154 56.9383 2.16404 57.0135 2.17154 57.0862C2.22152 57.462 2.34399 57.8052 2.46396 58.1384C2.50895 58.2612 2.55393 58.389 2.59392 58.5142C2.65641 58.7072 2.6664 58.8424 2.62391 58.9151C2.58143 58.9878 2.45396 59.0454 2.25151 59.083C2.21902 59.088 2.17653 59.098 2.13405 59.1105C1.71166 59.2358 1.46922 59.544 1.50172 59.9148C1.51421 60.0601 1.5617 60.1904 1.63918 60.3006C1.59919 60.3206 1.5642 60.3482 1.53671 60.3833C1.48422 60.4509 1.46672 60.5411 1.48672 60.6388C1.50421 60.729 1.49922 60.8267 1.49672 60.932C1.49172 61.0723 1.48422 61.2301 1.52921 61.4005C1.5467 61.4656 1.5717 61.5307 1.59419 61.5934C1.62918 61.6886 1.69666 61.869 1.65667 61.9041C1.45423 62.092 1.43923 62.2799 1.42923 62.4302C1.42674 62.4578 1.42424 62.4853 1.42174 62.5104C1.41924 62.5229 1.41924 62.5379 1.41674 62.5504C1.40924 62.6281 1.39924 62.6857 1.37925 62.6958C1.08183 62.8461 1.10932 63.1167 1.12432 63.262C1.15681 63.5827 1.11682 63.7681 0.984354 63.9034C0.656942 64.2366 0.569465 64.6375 0.731921 65.0559C0.766912 65.1461 0.784407 65.2488 0.804402 65.3565C0.844391 65.577 0.88688 65.825 1.08683 66.043C1.08683 66.0605 1.06933 66.1182 1.01185 66.1783C0.911873 66.2835 0.791905 66.3837 0.641946 66.489L0.636947 66.494C0.28954 66.737 0.0970916 66.8723 0.0271104 67.0928C-0.0428709 67.3107 0.0296097 67.5387 0.164574 67.9546C0.337027 68.4908 0.639446 68.8015 1.14431 68.9618C2.47895 69.3852 3.39121 70.1769 3.85608 71.3194C3.87358 71.362 3.88858 71.4021 3.90607 71.4447C3.98355 71.6426 4.07103 71.8681 4.23348 72.0234C4.22599 72.0309 4.21849 72.0384 4.21099 72.046C3.99605 72.2815 4.181 72.5671 4.26098 72.6899L4.26347 72.6924C4.66087 73.3037 4.89581 73.9751 5.14324 74.6867C5.18323 74.8044 5.22572 74.9222 5.26821 75.0399C5.2957 75.1151 5.33069 75.1827 5.36318 75.2429C5.37818 75.2729 5.39317 75.3005 5.40817 75.328C5.62561 75.779 5.87804 76.215 6.12048 76.6384C6.4079 77.1345 6.70282 77.6481 6.93526 78.1767C7.12021 78.5976 7.1677 78.8857 6.88027 79.2039C6.74031 79.3568 6.68033 79.5371 6.70782 79.71C6.73781 79.8904 6.86028 80.0483 7.05023 80.156C7.1627 80.2186 7.20769 80.2888 7.21768 80.4115C7.26267 80.9151 7.49261 81.3185 7.92 81.6417C8.10495 81.782 8.2724 81.9423 8.45235 82.1127C8.52233 82.1778 8.59482 82.248 8.6673 82.3131C8.68229 82.3282 8.71228 82.3532 8.72228 82.3683C8.67229 82.5136 8.70978 82.6639 8.82725 82.7766C9.55706 83.4706 10.3868 84.1521 11.4915 84.4402C11.5865 84.4653 11.669 84.4753 11.7415 84.4678C11.8464 84.4603 11.9189 84.4202 11.9664 84.3776C11.9889 84.3976 12.0164 84.4127 12.0489 84.4227C12.1514 84.4553 12.1914 84.5329 12.2613 84.6833C12.2938 84.7509 12.3263 84.8236 12.3713 84.8912C12.5438 85.1543 12.7412 85.4173 13.0936 85.485C13.7334 85.6103 14.2833 85.9209 14.8656 86.2491C15.1431 86.407 15.4305 86.5698 15.7279 86.7076C16.3127 86.9832 16.6851 87.344 16.8601 87.815C16.9176 87.9679 17.0051 88.0731 17.125 88.1332C17.7998 88.4664 18.1473 89.0477 18.2847 90.0799L18.2872 90.105C18.3022 90.2177 18.3222 90.3906 18.5022 90.5108C18.8871 90.7714 19.1145 91.1748 19.3044 91.5706C19.5644 92.1168 19.7493 92.7106 19.9268 93.2843C20.0517 93.6902 20.1842 94.1086 20.3417 94.517C20.4216 94.7225 20.4016 94.8653 20.2742 95.0056C20.2117 95.0757 20.1292 95.1834 20.1442 95.3288C20.1542 95.429 20.2117 95.5167 20.3117 95.5893C20.3092 95.6018 20.2992 95.6219 20.2842 95.6545C20.2567 95.7096 20.2317 95.7672 20.2092 95.8223C20.1642 95.925 20.1217 96.0228 20.0667 96.1004C19.8218 96.4512 19.6519 96.9873 20.2442 97.5435C20.5991 97.8793 20.7341 98.3202 20.6966 99.0242C20.6941 99.0844 20.6816 99.1495 20.6691 99.2197C20.6616 99.2547 20.6566 99.2898 20.6491 99.3274L20.6341 99.4176L20.6891 99.4902C20.9515 99.8335 21.2364 100.016 21.4689 99.9988C21.5139 99.9938 21.5588 99.9838 21.5988 99.9638C21.7013 99.9162 21.7763 99.831 21.8313 99.7007C21.9012 99.5328 21.9137 99.365 21.9237 99.2171C21.9262 99.1721 21.9287 99.132 21.9337 99.0919C21.9537 98.9065 22.0662 98.7787 22.1362 98.7737C22.1437 98.7737 22.1537 98.7737 22.1687 98.7837C22.2836 98.8614 22.3961 98.9466 22.5161 99.0393C22.976 99.39 23.4983 99.7859 24.2806 99.7283H24.2906C24.2981 99.7283 24.9929 99.6656 24.9879 99.3048C24.9854 99.1219 24.8155 99.0668 24.743 99.0418C24.678 99.0192 24.6155 98.9992 24.5755 98.9491C24.4606 98.8013 24.4731 98.5607 24.4856 98.3052C24.4881 98.2676 24.4931 98.2275 24.4981 98.1874C24.513 98.0622 24.533 97.9093 24.4706 97.749C24.4856 97.7415 24.5006 97.7339 24.5155 97.7289C24.9054 97.5485 25.3903 97.3256 25.4053 96.6767C25.4103 96.6717 25.4153 96.6616 25.4253 96.6516C25.7102 96.3485 25.7027 95.9852 25.6577 95.6695C25.6452 95.5893 25.6352 95.5041 25.6252 95.424C25.6028 95.2536 25.5803 95.0782 25.5478 94.9053C25.5078 94.6999 25.5328 94.5721 25.6302 94.4644C25.7827 94.294 25.7802 94.1537 25.7527 94.066C25.7252 93.9783 25.6452 93.8656 25.4303 93.8155C25.3303 93.7929 25.2703 93.7353 25.2504 93.6902C25.2354 93.6576 25.2454 93.6426 25.2479 93.6351C25.3978 93.3645 25.3678 93.0964 25.3428 92.881C25.3278 92.7482 25.3153 92.6329 25.3428 92.5427C25.4228 92.2947 25.3753 92.0767 25.3353 91.8863C25.3028 91.731 25.2728 91.5957 25.3153 91.4604C25.3653 91.29 25.3353 91.1071 25.3053 90.9318C25.2853 90.809 25.2628 90.6837 25.2728 90.5785C25.2778 90.5284 25.2903 90.3931 25.1954 90.2954C25.1879 90.2879 25.1829 90.2829 25.1754 90.2778C25.2653 90.1576 25.3103 89.9972 25.3053 89.8093C25.2978 89.6139 25.2379 89.4486 25.1804 89.2857C25.1629 89.2381 25.1454 89.193 25.1304 89.1454C24.8829 88.3863 24.8805 87.815 25.1179 87.2964C25.2454 87.0158 25.3753 86.7126 25.4328 86.3744C25.4953 86.0111 25.5778 85.7255 25.6952 85.48C25.9327 84.9764 26.0076 84.4452 26.0826 83.9316C26.0926 83.8615 26.1026 83.7938 26.1126 83.7237C26.2926 82.5136 26.5575 81.2483 27.2848 80.171C27.5522 79.7752 27.6472 79.4044 27.5822 79.001C27.4873 78.4147 27.6922 77.9212 28.2445 77.3975C28.4945 77.162 28.7844 76.939 29.1568 76.6985C29.5767 76.4279 30.0191 76.1323 30.4065 75.7715C30.9063 75.303 31.5312 74.7192 31.6336 73.8173C31.6361 73.7922 31.6511 73.7572 31.7286 73.702C31.9261 73.5642 32.121 73.3062 31.9261 72.8602C31.8936 72.7876 31.8586 72.7199 31.8261 72.6523C31.7986 72.5997 31.7736 72.5496 31.7511 72.4994C31.6661 72.3166 31.6911 72.0785 31.8161 71.8631C31.9461 71.6401 32.151 71.4948 32.3659 71.4772C32.4234 71.4898 32.4759 71.4948 32.5284 71.4923C32.7059 71.4772 32.8933 71.3444 32.8883 71.0137C32.8908 71.0087 32.8933 71.0012 32.8983 70.9987C33.3882 70.5978 33.5756 70.0191 33.7406 69.508L33.7656 69.4303C33.9205 68.9568 34.0855 68.6611 34.3329 68.4131L34.3504 68.3956C34.5879 68.1576 34.8853 67.8619 34.8003 67.3759C34.8003 67.3533 34.8403 67.2832 34.8628 67.2481C34.8703 67.2356 34.8778 67.223 34.8853 67.2105C35.1277 66.7921 35.4301 66.2735 35.4026 65.6196C35.3876 65.2613 35.5576 64.898 35.6851 64.655C35.695 64.6375 35.7051 64.6174 35.715 64.5974C35.74 64.5473 35.7875 64.4571 35.815 64.4345C36.1024 64.3744 36.2849 64.194 36.4473 64.0337C36.5498 63.9334 36.6448 63.8382 36.7548 63.7856C36.9172 63.708 36.9547 63.5927 36.9597 63.5301C36.9672 63.4699 36.9597 63.3572 36.8322 63.257C36.6273 63.0966 36.6348 62.9012 36.6648 62.568C36.6698 62.5229 36.6723 62.4778 36.6773 62.4302C36.6798 62.4102 36.6823 62.3851 36.6873 62.36C36.7048 62.2573 36.7323 62.0844 36.6073 61.9316C36.3199 61.5834 36.3999 61.2602 36.6598 60.7466C36.6698 60.7265 36.6798 60.709 36.6898 60.6889C36.7498 60.5812 36.8247 60.4434 36.8073 60.263C36.7398 59.5314 36.9447 58.8124 37.4471 57.9956C37.4546 57.9831 37.4621 57.9706 37.4696 57.9555C37.4746 57.948 37.4796 57.938 37.4846 57.9305C37.6995 57.9004 37.792 57.7827 37.832 57.6875C37.877 57.5772 37.8695 57.462 37.8645 57.3592L37.862 57.3367C37.8595 57.2841 37.8645 57.2239 37.872 57.1588C37.8745 57.1287 37.8795 57.1012 37.882 57.0711C37.912 56.7128 37.9894 56.3671 38.0719 56.0038C38.1344 55.7332 38.1969 55.4526 38.2394 55.167C38.2744 54.929 38.2519 54.7311 38.1694 54.5607C38.2619 54.5256 38.3518 54.4304 38.3843 54.2099C38.4343 53.8416 38.4893 53.4583 38.6643 53.1351C38.8267 52.8345 38.7267 52.624 38.6168 52.4511C38.3019 51.9476 38.2819 51.3888 38.5568 50.8727C38.8167 50.3892 38.9517 49.9357 38.9892 49.4446C39.0017 49.2668 39.0142 49.0889 39.0242 48.9135C39.0417 48.6329 39.0616 48.3423 39.0866 48.0592C39.1016 47.8838 39.1141 47.7034 39.1241 47.5305C39.1666 46.8866 39.2066 46.2753 39.4016 45.6865C39.554 45.2331 39.6115 44.7921 39.5815 44.3361C39.5615 44.0405 39.5415 43.7248 39.5265 43.4141C39.5215 43.2863 39.5315 43.2362 39.5715 43.1886C39.8714 42.8404 40.0414 42.4044 40.0939 41.8558C40.1814 40.9388 40.2013 39.9967 40.1564 38.982C40.1314 38.4309 40.1414 38.1127 40.6337 37.9874C40.8787 37.9248 41.0336 37.6867 41.0586 37.336C41.0836 37.0178 40.8087 36.9376 40.7062 36.9076C40.6812 36.9001 40.6537 36.8925 40.6412 36.885C40.4638 36.7973 40.3388 36.6545 40.2438 36.434C40.0464 35.9756 39.9989 35.4945 40.1014 35.0035C40.1514 34.7654 40.2263 34.6301 40.3438 34.5625C40.9711 34.2117 41.1836 33.6455 40.9736 32.8814C40.9636 32.8463 40.9611 32.8037 40.9561 32.7561C40.9511 32.7085 40.9461 32.6534 40.9337 32.5983C40.8737 32.3177 40.9461 32.1097 41.1711 31.9218C41.2561 31.8516 41.3335 31.774 41.411 31.7013C41.4635 31.6512 41.5135 31.6011 41.5635 31.556C42.3408 30.857 42.9381 29.9275 43.4405 28.6347C43.4905 28.5044 43.538 28.3366 43.4505 28.1887C43.438 28.1662 43.423 28.1486 43.408 28.1311C43.458 28.071 43.4905 27.9858 43.4855 27.8655C43.473 27.5649 43.5779 27.2968 43.7479 26.9636C43.8254 26.8133 43.8429 26.6604 43.8004 26.4976C43.6054 25.7234 43.7754 25.0144 44.3202 24.3254C44.3877 24.2402 44.5452 24.0398 44.4677 23.8243C44.4327 23.7291 44.4427 23.699 44.4427 23.699C44.4627 23.6715 44.5902 23.6364 44.6576 23.6189L44.6951 23.6088C44.8251 23.5738 44.9376 23.5337 45.0376 23.4861C45.21 23.4059 45.3974 23.3032 45.4249 23.1078C45.4499 22.9148 45.3 22.7695 45.1575 22.6468C45.1 22.5992 45.0375 22.544 44.9901 22.4889C44.9151 22.3987 44.8751 22.316 44.8876 22.2684C44.9001 22.2208 44.9701 22.1657 45.075 22.1231C45.0875 22.1181 45.0975 22.1131 45.11 22.1081C45.135 22.0981 45.1725 22.0805 45.185 22.0805C45.2075 22.0805 45.2275 22.0805 45.2475 22.078C45.4799 22.058 45.5924 21.9402 45.6449 21.845C45.7124 21.7198 45.7174 21.5744 45.7124 21.4492C45.6999 21.1636 45.7124 20.8654 45.7249 20.5798L45.7299 20.4746C45.7499 20.0111 45.7299 19.5927 45.275 19.1843C44.7851 18.7433 44.4777 18.0794 44.3377 17.1574C44.3277 17.0998 44.3202 17.0371 44.3127 16.9795C44.2703 16.6413 44.2228 16.2605 43.8779 15.9673C43.8654 15.9423 43.8579 15.8646 43.8554 15.8195C43.8529 15.7995 43.8529 15.7794 43.8504 15.7619C43.7829 15.0829 43.7179 14.3589 43.7379 13.6398C43.7854 11.9737 44.3327 10.7185 45.4174 9.80402C45.5824 9.66372 45.7549 9.49836 45.9573 9.28039C46.1148 9.11253 46.3072 8.90207 46.3772 8.5889L46.4222 8.38345C46.8321 8.19555 47.2545 8.00263 47.6743 7.83226C47.6843 7.82976 47.6968 7.82475 47.7093 7.81974C47.7843 7.79468 47.9868 7.72954 47.9993 7.50155C48.0143 7.23347 47.7993 7.12824 47.6968 7.07813ZM38.5043 7.76462L38.5218 7.73455C38.5393 7.73956 38.5568 7.74708 38.5718 7.75209C38.5493 7.7571 38.5268 7.76211 38.5043 7.76462C38.5043 7.76712 38.5018 7.76712 38.5043 7.76462Z" fill="#173042"/>
</svg>
