<svg width="19" height="13" viewBox="0 0 19 13" fill="none" xmlns="http://www.w3.org/2000/svg">
<path d="M18.0486 2.01895C17.8361 1.22951 17.2137 0.607233 16.4244 0.394652C14.9823 0 9.21394 0 9.21394 0C9.21394 0 3.44572 0 2.00363 0.379608C1.22951 0.592049 0.591908 1.22965 0.379468 2.01895C0 3.4609 0 6.45138 0 6.45138C0 6.45138 0 9.45689 0.379468 10.8838C0.592049 11.6731 1.21433 12.2955 2.00377 12.5081C3.4609 12.9028 9.21408 12.9028 9.21408 12.9028C9.21408 12.9028 14.9823 12.9028 16.4244 12.5231C17.2138 12.3107 17.8361 11.6883 18.0487 10.899C18.4282 9.45689 18.4282 6.46656 18.4282 6.46656C18.4282 6.46656 18.4433 3.4609 18.0486 2.01895Z" fill="#FF0000"/>
<path d="M7.375 9.21389L12.1717 6.45118L7.375 3.68848V9.21389Z" fill="white"/>
</svg>
