<svg width="62" height="51" viewBox="0 0 62 51" fill="none" xmlns="http://www.w3.org/2000/svg">
<path d="M5.95286 49.7372C2.58433 51.2109 2.3738 48.0529 4.26859 46.3686C10.5846 40.6842 13.532 34.1577 13.9531 27.4207C14.1636 24.2627 13.111 23.6311 9.11085 23.4205C4.05806 23.21 -0.573663 18.1572 0.0579356 11.8412C0.689534 4.68311 5.53179 -0.580206 14.1636 0.0513846C22.1639 0.682988 27.2167 8.26217 26.5851 17.1046C25.7429 29.7365 18.1638 44.4738 5.95286 49.7372ZM40.2697 50.1582C36.9012 51.632 36.6907 48.474 38.5855 46.7897C44.9014 41.3158 48.0594 34.1577 48.4805 27.4207C48.691 24.2627 47.8489 23.6311 43.8488 23.4205C38.796 23.21 34.1643 18.1572 34.7959 11.8412C35.4275 4.68311 40.2697 -0.580206 48.9016 0.0513846C57.1124 0.682988 62.1651 8.26217 61.5335 17.1046C60.6914 29.9471 52.4806 44.8949 40.2697 50.1582Z" fill="#173042"/>
</svg>
