<svg width="62" height="53" viewBox="0 0 62 53" fill="none" xmlns="http://www.w3.org/2000/svg">
<path d="M12.8937 52.3828C4.68294 51.7512 -0.580383 44.1721 0.051216 35.3297C0.893348 22.4872 9.10413 5.85508 21.5256 0.381219C24.8941 -1.0925 25.1046 2.06549 23.2098 3.74975C17.1044 9.2236 13.7359 18.2765 13.3148 25.0136C13.1043 28.1716 13.9464 28.8032 17.9465 29.0137C22.9993 29.2242 27.631 34.277 26.9994 40.593C26.3678 47.7511 21.5256 53.0144 12.8937 52.3828ZM47.8422 52.3828C39.8419 51.7512 34.5786 44.1721 35.2102 35.3297C36.0523 22.6977 43.6315 6.27614 56.053 0.802292C59.4215 -0.671445 59.632 2.48655 57.7372 4.17081C51.4212 9.8552 48.4738 18.2765 48.0527 25.0136C47.8422 28.1716 48.8948 28.8032 52.895 29.0137C57.9478 29.2242 62.5795 34.277 61.9479 40.593C61.3163 47.7511 56.474 53.0144 47.8422 52.3828Z" fill="#173042"/>
</svg>
